HIERARCHY
ROOT Hips
{
	OFFSET 0.000000 0.000000 0.000000
	CHANNELS 6 Xposition Yposition Zposition Zrotation Yrotation Xrotation 
	JOINT LowerBack
	{
		OFFSET 0.000000 0.000000 0.000000
		CHANNELS 3 Zrotation Yrotation Xrotation
		JOINT Spine
		{
			OFFSET 0.028270 2.035590 -0.193380
			CHANNELS 3 Zrotation Yrotation Xrotation
			JOINT Spine1
			{
				OFFSET 0.056720 2.048850 -0.042750
				CHANNELS 3 Zrotation Yrotation Xrotation
				JOINT Neck
				{
					OFFSET 0.000000 0.000000 0.000000
					CHANNELS 3 Zrotation Yrotation Xrotation
					JOINT Neck1
					{
						OFFSET -0.054170 1.746240 0.172020
						CHANNELS 3 Zrotation Yrotation Xrotation
						JOINT Head
						{
							OFFSET 0.104070 1.761360 -0.123970
							CHANNELS 3 Zrotation Yrotation Xrotation
							End Site
							{
								OFFSET 0.000000 0.000000 0.000000
							}
						}
					}
				}
				JOINT LeftShoulder
				{
					OFFSET 0.000000 0.000000 0.000000
					CHANNELS 3 Zrotation Yrotation Xrotation
					JOINT LeftArm
					{
						OFFSET 3.362410 1.200890 -0.311210
						CHANNELS 3 Zrotation Yrotation Xrotation
						JOINT LeftForeArm
						{
							OFFSET 4.983000 -0.000000 -0.000000
							CHANNELS 3 Zrotation Yrotation Xrotation
							JOINT LeftHand
							{
								OFFSET 3.483560 -0.000000 -0.000000
								CHANNELS 3 Zrotation Yrotation Xrotation
								JOINT LeftFingerBase
								{
									OFFSET 0.000000 0.000000 0.000000
									CHANNELS 3 Zrotation Yrotation Xrotation
									JOINT LeftHandIndex1
									{
										OFFSET 0.715260 -0.000000 -0.000000
										CHANNELS 3 Zrotation Yrotation Xrotation
										End Site
										{
											OFFSET 0.000000 0.000000 0.000000
										}
									}
								}
								JOINT LThumb
								{
									OFFSET 0.000000 0.000000 0.000000
									CHANNELS 3 Zrotation Yrotation Xrotation
									End Site
									{
										OFFSET 0.000000 0.000000 0.000000
									}
								}
							}
						}
					}
				}
				JOINT RightShoulder
				{
					OFFSET 0.000000 0.000000 0.000000
					CHANNELS 3 Zrotation Yrotation Xrotation
					JOINT RightArm
					{
						OFFSET -3.136600 1.374050 -0.404650
						CHANNELS 3 Zrotation Yrotation Xrotation
						JOINT RightForeArm
						{
							OFFSET -5.241900 -0.000000 -0.000000
							CHANNELS 3 Zrotation Yrotation Xrotation
							JOINT RightHand
							{
								OFFSET -3.444170 -0.000000 -0.000000
								CHANNELS 3 Zrotation Yrotation Xrotation
								JOINT RightFingerBase
								{
									OFFSET 0.000000 0.000000 0.000000
									CHANNELS 3 Zrotation Yrotation Xrotation
									JOINT RightHandIndex1
									{
										OFFSET -0.622530 -0.000000 -0.000000
										CHANNELS 3 Zrotation Yrotation Xrotation
										End Site
										{
											OFFSET 0.000000 0.000000 0.000000
										}
									}
								}
								JOINT RThumb
								{
									OFFSET 0.000000 0.000000 0.000000
									CHANNELS 3 Zrotation Yrotation Xrotation
									End Site
									{
										OFFSET 0.000000 0.000000 0.000000
									}
								}
							}
						}
					}
				}
			}
		}
	}
}
}
MOTION
Frames: 18
Frame Time: 0.008333
18.707881 16.124930 2.204893 75.422061 -88.115828 -16.046559 2.343017 -1.614441 -4.580686 -0.356451 -1.979761 -4.054077 -5.831675 -2.197378 0.719732 8.364153 -7.226963 -8.832002 -3.029572 -0.193682 -0.878005 0.000000 0.000000 0.000000 -1.971628 1.599489 3.475506 -75.001516 2.306720 20.807391 -2.054142 -29.699397 -0.000377 0.629584 -0.386514 -0.002603 -0.041216 0.131888 -0.000000 0.000000 0.000000 0.000000 0.000000 0.000000 0.000000 15.826465 -5.527774 3.391878 75.755241 -0.669071 11.953383 2.621950 26.916987 0.016116 7.125453 1.534523 0.103812 -0.007409 -0.126590 0.000000 0.000000 0.000000 0.000000 0.000000 0.000000 0.000000 
18.695140 15.998991 2.207206 79.718862 -87.856970 -19.161190 2.129506 -1.661808 -4.819675 -0.408744 -2.025165 -4.125426 -5.794957 -2.247740 0.662356 8.362563 -7.062635 -8.862290 -3.024179 -0.191739 -0.907423 0.000000 0.000000 0.000000 -1.835183 1.323418 3.540908 -74.584265 1.591968 21.566885 -2.066355 -30.087907 -0.000151 0.516079 -0.366796 -0.002083 -0.042222 0.139307 -0.000000 0.000000 0.000000 0.000000 0.000000 0.000000 0.000000 15.936625 -5.341519 3.479817 75.473845 -0.309531 12.431841 2.609775 26.820246 0.017117 7.530445 1.443318 0.103910 -0.013715 -0.128608 0.000000 0.000000 0.000000 0.000000 0.000000 0.000000 0.000000 
18.682281 15.863675 2.209248 83.446229 -87.581708 -21.767044 1.906690 -1.715667 -5.039751 -0.464750 -2.075500 -4.194840 -5.760321 -2.303010 0.593457 8.351607 -6.831160 -8.868854 -3.025553 -0.190681 -0.929469 0.000000 0.000000 0.000000 -1.722878 0.997204 3.609070 -74.117446 0.939068 22.277293 -2.082078 -30.525179 0.000200 0.365744 -0.351137 -0.001363 -0.042859 0.146565 -0.000000 0.000000 0.000000 0.000000 0.000000 0.000000 0.000000 16.055320 -5.091600 3.566040 75.169025 -0.033511 12.842083 2.589933 26.689683 0.017864 7.786446 1.349597 0.101308 -0.018618 -0.130637 0.000000 0.000000 0.000000 0.000000 0.000000 0.000000 0.000000 
18.669251 15.719627 2.211745 86.285413 -87.332406 -23.557036 1.712558 -1.762287 -5.224786 -0.515471 -2.118717 -4.253546 -5.729159 -2.350719 0.529370 8.338845 -6.609978 -8.876112 -3.031303 -0.190000 -0.951468 0.000000 0.000000 0.000000 -1.648258 0.694636 3.675095 -73.592542 0.247938 23.034094 -2.101644 -30.958790 0.000643 0.196747 -0.335508 -0.000542 -0.043457 0.153494 -0.000000 0.000000 0.000000 0.000000 0.000000 0.000000 0.000000 16.193580 -4.851299 3.648157 74.812735 0.231606 13.288878 2.562803 26.531002 0.018216 7.850631 1.218046 0.093207 -0.021450 -0.132291 0.000000 0.000000 0.000000 0.000000 0.000000 0.000000 0.000000 
18.655897 15.567076 2.214700 88.354290 -87.102793 -24.654319 1.550851 -1.805260 -5.374836 -0.559775 -2.158887 -4.302495 -5.703596 -2.395099 0.466500 8.323565 -6.384224 -8.876515 -3.043512 -0.189971 -0.971048 0.000000 0.000000 0.000000 -1.624485 0.396775 3.739915 -72.996328 -0.455725 23.827628 -2.123630 -31.411263 0.001113 0.032393 -0.317816 0.000179 -0.044213 0.160085 -0.000000 0.000000 0.000000 0.000000 0.000000 0.000000 0.000000 16.355439 -4.609266 3.724821 74.405014 0.470051 13.766073 2.526652 26.360334 0.018119 7.706884 1.053688 0.080506 -0.022025 -0.133643 0.000000 0.000000 0.000000 0.000000 0.000000 0.000000 0.000000 
18.642226 15.406563 2.218206 89.700215 -86.895588 -25.113346 1.428995 -1.843720 -5.487621 -0.596193 -2.195759 -4.342238 -5.686593 -2.436057 0.401182 8.306723 -6.144799 -8.863986 -3.064277 -0.190848 -0.986326 0.000000 0.000000 0.000000 -1.664482 0.078101 3.803910 -72.317561 -1.147243 24.641351 -2.146060 -31.902559 0.001543 -0.107162 -0.292214 0.000701 -0.045270 0.166287 -0.000000 0.000000 0.000000 0.000000 0.000000 0.000000 0.000000 16.547560 -4.357392 3.796941 73.947707 0.673087 14.246237 2.482243 26.193186 0.017577 7.379603 0.837409 0.063204 -0.020545 -0.134514 0.000000 0.000000 0.000000 0.000000 0.000000 0.000000 0.000000 
18.628124 15.238879 2.222378 90.360423 -86.716594 -24.976855 1.354373 -1.876296 -5.556390 -0.622918 -2.228363 -4.368211 -5.679851 -2.472459 0.343039 8.295248 -5.927905 -8.851589 -3.093081 -0.192411 -1.001288 0.000000 0.000000 0.000000 -1.778338 -0.214110 3.866336 -71.542561 -1.889818 25.544810 -2.170333 -32.405543 0.001854 -0.199486 -0.254319 0.001123 -0.047095 0.171980 -0.000000 0.000000 0.000000 0.000000 0.000000 0.000000 0.000000 16.780109 -4.133092 3.862618 73.431555 0.890472 14.776583 2.432343 26.022010 0.016596 6.890820 0.572930 0.043001 -0.017077 -0.134783 0.000000 0.000000 0.000000 0.000000 0.000000 0.000000 0.000000 
18.613071 15.064620 2.226890 90.459817 -86.542490 -24.368806 1.313673 -1.909898 -5.592884 -0.643712 -2.263508 -4.388052 -5.686725 -2.511678 0.276938 8.286928 -5.671790 -8.814935 -3.134267 -0.195334 -1.008417 0.000000 0.000000 0.000000 -1.973282 -0.573697 3.930374 -70.662200 -2.573262 26.434574 -2.193070 -32.974368 0.001995 -0.234839 -0.205747 0.001146 -0.049547 0.177254 -0.000000 0.000000 0.000000 0.000000 0.000000 0.000000 0.000000 17.057063 -3.879652 3.925487 72.873977 1.069295 15.273158 2.379023 25.851094 0.015313 6.304680 0.275891 0.022997 -0.012364 -0.134615 0.000000 0.000000 0.000000 0.000000 0.000000 0.000000 0.000000 
18.596906 14.885069 2.232030 89.976931 -86.390646 -23.273965 1.320016 -1.937819 -5.586029 -0.655623 -2.294934 -4.395033 -5.708236 -2.547186 0.216272 8.290108 -5.431017 -8.775607 -3.185765 -0.199147 -1.014461 0.000000 0.000000 0.000000 -2.255251 -0.934814 3.995458 -69.673446 -3.296858 27.387330 -2.217288 -33.547663 0.001940 -0.210534 -0.143954 0.000969 -0.052941 0.181947 -0.000000 0.000000 0.000000 0.000000 0.000000 0.000000 0.000000 17.386722 -3.648890 3.985652 72.268812 1.287313 15.765823 2.328273 25.650439 0.013852 5.687009 -0.047672 0.004593 -0.006980 -0.133873 0.000000 0.000000 0.000000 0.000000 0.000000 0.000000 0.000000 
18.579492 14.701364 2.237580 89.010681 -86.246694 -21.792615 1.362387 -1.963591 -5.542104 -0.661589 -2.325815 -4.392211 -5.745593 -2.582430 0.156630 8.306716 -5.184198 -8.726756 -3.248813 -0.204027 -1.017311 0.000000 0.000000 0.000000 -2.621842 -1.333813 4.064160 -68.579971 -4.029573 28.349178 -2.243221 -34.118939 0.001706 -0.136306 -0.077093 0.000793 -0.057113 0.186108 -0.000000 0.000000 0.000000 0.000000 0.000000 0.000000 0.000000 17.771745 -3.421929 4.045729 71.629543 1.544707 16.210891 2.283985 25.391417 0.012410 5.103816 -0.352054 -0.009513 -0.001708 -0.132954 0.000000 0.000000 0.000000 0.000000 0.000000 0.000000 0.000000 
18.560412 14.514723 2.243323 87.669373 -86.101661 -20.030997 1.431544 -1.989001 -5.464814 -0.663801 -2.357472 -4.379943 -5.798068 -2.618807 0.100271 8.339672 -4.928700 -8.671485 -3.322967 -0.209879 -1.017999 0.000000 0.000000 0.000000 -3.066457 -1.763397 4.139120 -67.392731 -4.795563 29.309036 -2.273696 -34.641308 0.001357 -0.030840 -0.018415 0.000517 -0.061943 0.189786 -0.000000 0.000000 0.000000 0.000000 0.000000 0.000000 0.000000 18.213193 -3.196782 4.106891 70.967799 1.864926 16.577027 2.249703 25.034266 0.011176 4.615838 -0.594217 -0.018317 0.002692 -0.132217 0.000000 0.000000 0.000000 0.000000 0.000000 0.000000 0.000000 
18.539240 14.326467 2.249146 86.069598 -85.947705 -18.104175 1.517234 -2.015309 -5.359257 -0.664617 -2.390613 -4.359978 -5.863959 -2.657161 0.046064 8.389100 -4.650686 -8.608522 -3.407495 -0.216638 -1.016203 0.000000 0.000000 0.000000 -3.576838 -2.235977 4.223096 -66.134549 -5.597306 30.221771 -2.310945 -35.064120 0.001005 0.077913 0.013993 0.000442 -0.067090 0.193095 -0.000000 0.000000 0.000000 0.000000 0.000000 0.000000 0.000000 18.706479 -2.959374 4.171407 70.301616 2.258460 16.807154 2.227797 24.535143 0.010331 4.273573 -0.731775 -0.022019 0.005518 -0.132078 0.000000 0.000000 0.000000 0.000000 0.000000 0.000000 0.000000 
18.515869 14.138050 2.254920 84.326870 -85.779808 -16.126189 1.610219 -2.043288 -5.230649 -0.665856 -2.425458 -4.333890 -5.940275 -2.697791 -0.006531 8.453673 -4.339885 -8.537683 -3.500695 -0.224148 -1.011880 0.000000 0.000000 0.000000 -4.135371 -2.759684 4.318074 -64.838043 -6.440576 31.040258 -2.357242 -35.324455 0.000785 0.160250 -0.001126 0.000266 -0.072153 0.196176 -0.000000 0.000000 0.000000 0.000000 0.000000 0.000000 0.000000 19.242300 -2.698902 4.241183 69.648492 2.739468 16.858475 2.219202 23.842916 0.009982 4.096398 -0.718396 -0.020618 0.006445 -0.132999 0.000000 0.000000 0.000000 0.000000 0.000000 0.000000 0.000000 
18.489876 13.950862 2.260518 82.569450 -85.592968 -14.220575 1.699647 -2.074451 -5.084685 -0.669421 -2.462876 -4.302430 -6.022852 -2.741512 -0.055367 8.532625 -3.999495 -8.462717 -3.599663 -0.232114 -1.006113 0.000000 0.000000 0.000000 -4.719356 -3.327878 4.424637 -63.543737 -7.346318 31.728429 -2.415097 -35.345334 0.000832 0.190119 -0.084539 -0.000010 -0.076784 0.199162 -0.000000 0.000000 0.000000 0.000000 0.000000 0.000000 0.000000 19.809396 -2.418787 4.316777 69.021874 3.336441 16.720479 2.223020 22.901084 0.010121 4.064393 -0.506526 -0.012813 0.005659 -0.135428 0.000000 0.000000 0.000000 0.000000 0.000000 0.000000 0.000000 
18.460969 13.766288 2.265863 80.896647 -85.386820 -12.481984 1.777490 -2.108764 -4.927984 -0.676276 -2.502344 -4.268294 -6.106302 -2.787864 -0.103610 8.617986 -3.599362 -8.378267 -3.702229 -0.240406 -0.997280 0.000000 0.000000 0.000000 -5.305283 -3.947009 4.543906 -62.298244 -8.316424 32.235864 -2.486054 -35.053627 0.001250 0.149333 -0.251103 -0.000188 -0.080674 0.202200 -0.000000 0.000000 0.000000 0.000000 0.000000 0.000000 0.000000 20.387619 -2.086518 4.399766 68.450301 4.038482 16.272509 2.236264 21.668910 0.010745 4.187564 -0.116565 0.001095 0.002866 -0.139165 0.000000 0.000000 0.000000 0.000000 0.000000 0.000000 0.000000 
18.429140 13.585835 2.270923 79.371068 -85.164018 -10.970226 1.838354 -2.145250 -4.765658 -0.686540 -2.542477 -4.233100 -6.184914 -2.835322 -0.152492 8.702002 -3.132280 -8.283474 -3.805186 -0.248762 -0.984953 0.000000 0.000000 0.000000 -5.871594 -4.608352 4.670966 -61.145989 -9.352341 32.569353 -2.567733 -34.371465 0.001907 0.120167 -0.591332 -0.000667 -0.084649 0.206071 -0.000000 0.000000 0.000000 0.000000 0.000000 0.000000 0.000000 20.955157 -1.696047 4.490505 67.951735 4.859458 15.447624 2.254052 20.098387 0.011716 4.426174 0.444225 0.023006 -0.001564 -0.144076 0.000000 0.000000 0.000000 0.000000 0.000000 0.000000 0.000000 
18.394274 13.410675 2.275693 78.023228 -84.931741 -9.707646 1.878951 -2.183693 -4.604076 -0.699532 -2.582909 -4.198265 -6.252625 -2.883490 -0.201708 8.777610 -2.581977 -8.176324 -3.904973 -0.256914 -0.968364 0.000000 0.000000 0.000000 -6.390598 -5.312001 4.808887 -60.146832 -10.489282 32.586716 -2.664134 -33.228172 0.003123 -0.055837 -0.943057 0.000447 -0.086672 0.209445 -0.000000 0.000000 0.000000 0.000000 0.000000 0.000000 0.000000 21.491398 -1.225586 4.589416 67.540450 5.802955 14.124582 2.269067 18.154799 0.012869 4.746261 1.125062 0.053220 -0.007393 -0.149645 0.000000 0.000000 0.000000 0.000000 0.000000 0.000000 0.000000 
18.356448 13.242106 2.280253 76.844111 -84.699853 -8.680214 1.901054 -2.222137 -4.447388 -0.713344 -2.621670 -4.164341 -6.303993 -2.930074 -0.250262 8.836118 -1.957342 -8.059256 -3.997873 -0.264546 -0.947912 0.000000 0.000000 0.000000 -6.847303 -6.035215 4.949002 -59.333334 -11.738159 32.303967 -2.768672 -31.574986 0.004607 -0.272008 -1.365947 0.003252 -0.087776 0.212951 -0.000000 0.000000 0.000000 0.000000 0.000000 0.000000 0.000000 21.974818 -0.686080 4.695971 67.216417 6.905155 12.238088 2.271293 15.793527 0.013930 5.065260 1.901970 0.091633 -0.013784 -0.155553 0.000000 0.000000 0.000000 0.000000 0.000000 0.000000 0.000000 
